#!OML:ASF H:\Terrain\Patient Classification 1\PLAYGROUND\JustinFriday\JustinFriday.ASF
:FULLY-SPECIFIED
:DEGREES
2265
root -1.03605 12.1571 6.17871 -14.5271 -14.5903 -1.14426
lowerback 17.3813 -5.91542 -8.41672
upperback 2.23168 -9.53218 -1.5458
thorax -6.14658 -4.48922 5.07071
lowerneck 8.47278 -5.1872 -9.83461
upperneck 2.40272 -7.93918 13.269
head 0.24142 -4.24604 5.74011
rclavicle 6.97734e-014 -1.59028e-014
rhumerus -62.3132 -49.3076 -14.0297
rradius 87.1545
rwrist -34.4093
rhand -30.8171 -34.2411
rfingers 7.12502
rthumb -4.10649 -784.181
lclavicle 6.97734e-014 -1.59028e-014
lhumerus -39.0334 32.24 65.3145
lradius 54.0678
lwrist -10.1405
lhand -41.9292 -25.501
lfingers 7.12502
lthumb -14.827 3.94855
rfemur -39.5462 -0.399911 31.3788
rtibia 112.735
rfoot -37.018 -0.728157
rtoes 2.02554
lfemur 0.993758 9.09039 3.17221
ltibia 99.4736
lfoot -17.879 -36.9222
ltoes -28.5427
2266
root -1.01681 12.2903 6.28316 -13.9589 -15.0393 -0.677128
lowerback 17.7389 -6.06558 -9.15277
upperback 2.05253 -9.91789 -1.54945
thorax -6.36048 -4.63783 5.58871
lowerneck 8.06276 -4.96529 -9.42826
upperneck 2.04217 -7.53429 13.0338
head 0.131449 -4.02705 5.59377
rclavicle -2.02512e-013 -1.66979e-014
rhumerus -60.4255 -47.547 -19.2887
rradius 83.1127
rwrist -34.9519
rhand -29.3982 -32.5895
rfingers 7.12502
rthumb -2.73627 -782.552
lclavicle -2.02512e-013 -1.66979e-014
lhumerus -38.2399 31.6639 66.2455
lradius 52.2179
lwrist -12.0565
lhand -42.1259 -25.8444
lfingers 7.12502
lthumb -15.0164 3.59108
rfemur -38.9994 -0.143646 30.5143
rtibia 111.605
rfoot -37.5489 -0.52643
rtoes 1.18641
lfemur 0.454967 9.51429 1.84009
ltibia 98.7565
lfoot -15.661 -36.0755
ltoes -28.9312
2267
root -0.998815 12.4098 6.3976 -13.8744 -15.3967 0.15638
lowerback 18.1317 -6.13833 -10.196
upperback 2.10188 -10.2691 -1.72057
thorax -6.31952 -4.78671 6.07005
lowerneck 7.47354 -4.73873 -9.14963
upperneck 1.73569 -7.13364 12.9953
head 0.0802226 -3.80806 5.52204
rclavicle 5.22804e-014 4.92986e-014
rhumerus -58.9265 -46.1408 -24.0856
rradius 79.4304
rwrist -35.1595
rhand -27.9146 -31.8564
rfingers 7.12502
rthumb -1.30347 -781.832
lclavicle 5.22804e-014 4.92986e-014
lhumerus -37.1959 31.3561 67.0959
lradius 50.607
lwrist -13.9867
lhand -41.8068 -25.9445
lfingers 7.12502
lthumb -14.709 3.51367
rfemur -37.9511 -0.0616209 29.1808
rtibia 110.519
rfoot -38.2162 -0.235575
rtoes 0.969979
lfemur 0.266074 9.65564 0.0655418
ltibia 97.9926
lfoot -11.7982 -35.6733
ltoes -25.7458
2268
root -0.983075 12.5276 6.49449 -13.2044 -16.2409 -0.0747296
lowerback 18.3935 -6.20827 -10.2651
upperback 2.04597 -10.3932 -1.5065
thorax -6.44778 -4.83128 6.397
lowerneck 6.89779 -4.53258 -9.09784
upperneck 1.52778 -6.79304 13.0948
head 0.0758438 -3.62185 5.52959
rclavicle -1.75179e-014 2.06736e-014
rhumerus -57.8792 -44.9663 -28.2353
rradius 76.0967
rwrist -34.6243
rhand -26.0393 -31.6313
rfingers 7.12502
rthumb 0.507828 -781.61
lclavicle -1.75179e-014 2.06736e-014
lhumerus -36.3871 31.1583 67.9419
lradius 49.427
lwrist -15.398
lhand -40.8471 -25.3212
lfingers 7.12502
lthumb -13.7842 4.20211
rfemur -37.4602 0.578316 29.3565
rtibia 109.324
rfoot -38.2825 -0.152378
rtoes 0.624446
lfemur -0.517843 10.2684 0.103684
ltibia 97.6263
lfoot -8.16101 -35.8591
ltoes -20.9892
2269
root -0.968052 12.6559 6.60885 -13.4163 -16.3541 1.55994
lowerback 18.9342 -6.07937 -12.0809
upperback 1.99932 -10.6879 -1.79486
thorax -6.47407 -4.92199 7.17755
lowerneck 6.56043 -4.42516 -9.12872
upperneck 1.05685 -6.58337 13.1996
head -0.0254956 -3.51227 5.56413
rclavicle -4.77083e-015 5.40694e-014
rhumerus -56.8466 -44.2405 -31.7375
rradius 72.4625
rwrist -32.9863
rhand -23.1447 -30.8235
rfingers 7.12502
rthumb 3.3034 -780.778
lclavicle -4.77083e-015 5.40694e-014
lhumerus -35.5845 30.7493 68.8773
lradius 48.4061
lwrist -16.1255
lhand -39.9967 -25.3881
lfingers 7.12502
lthumb -12.9646 4.18915
rfemur -36.5362 0.508935 27.0198
rtibia 108.323
rfoot -38.7218 0.711833
rtoes 0.922581
lfemur -0.93536 10.3504 -2.62441
ltibia 97.0545
lfoot -5.66853 -34.9292
ltoes -22.5273
2270
root -0.947742 12.7808 6.68221 -11.6818 -17.5544 -0.028593
lowerback 18.8921 -6.17501 -10.7859
upperback 1.73823 -10.5073 -1.12305
thorax -6.86854 -4.82189 7.20154
lowerneck 5.94453 -4.39435 -9.07321
upperneck 0.933896 -6.4828 13.1389
head 0.0249262 -3.44119 5.51888
rclavicle -1.04089e-013 -5.56597e-015
rhumerus -55.8545 -44.4134 -34.5523
rradius 68.4797
rwrist -30.3451
rhand -24.1563 -27.857
rfingers 7.12502
rthumb 2.32645 -777.824
lclavicle -1.04089e-013 -5.56597e-015
lhumerus -34.5266 29.9808 69.914
lradius 47.5025
lwrist -16.1483
lhand -39.1113 -25.1049
lfingers 7.12502
lthumb -12.1109 4.52462
rfemur -37.0059 1.59332 28.8673
rtibia 106.993
rfoot -38.1754 0.805117
rtoes 2.37346
lfemur -2.87849 11.5391 -0.575714
ltibia 97.3318
lfoot -3.83956 -35.6888
ltoes -27.1642
2271
root -0.921714 12.8996 6.78214 -11.0764 -18.1862 -0.0655204
lowerback 19.1724 -6.132 -10.7403
upperback 1.64362 -10.4725 -0.996815
thorax -7.11448 -4.77992 7.3584
lowerneck 5.68618 -4.44511 -9.10653
upperneck 0.467374 -6.49217 13.1533
head -0.065036 -3.44243 5.52757
rclavicle -1.52766e-013 -7.95139e-015
rhumerus -54.9164 -44.2097 -37.1665
rradius 64.6925
rwrist -28.0362
rhand -21.8992 -28.8727
rfingers 7.12502
rthumb 4.50607 -778.805
lclavicle -1.52766e-013 -7.95139e-015
lhumerus -33.561 29.131 70.7972
lradius 46.7073
lwrist -15.8296
lhand -38.4272 -24.7791
lfingers 7.12502
lthumb -11.4512 4.88819
rfemur -36.5827 2.01076 28.6144
rtibia 105.808
rfoot -38.3174 1.10841
rtoes 2.56416
lfemur -4.06882 12.0406 -0.797609
ltibia 97.5578
lfoot -2.62663 -35.819
ltoes -32.5706
2272
root -0.894999 13.0199 6.88745 -10.6128 -18.9559 -0.10466
lowerback 19.3817 -5.96037 -10.6116
upperback 1.62759 -10.2342 -0.853221
thorax -7.28437 -4.65172 7.43449
lowerneck 6.33792 -4.55389 -9.6151
upperneck -1.16528 -6.56971 13.6235
head -0.604645 -3.52851 5.80544
rclavicle -1.15742e-013 -1.03368e-014
rhumerus -53.9853 -43.5504 -39.5818
rradius 61.1378
rwrist -26.198
rhand -23.6167 -25.0574
rfingers 7.12502
rthumb 2.84749 -775.018
lclavicle -1.15742e-013 -1.03368e-014
lhumerus -32.4115 28.3762 71.6287
lradius 45.7202
lwrist -15.8654
lhand -37.2084 -24.1298
lfingers 7.12502
lthumb -10.2757 5.59919
rfemur -35.9618 2.60285 28.4198
rtibia 104.547
rfoot -38.4078 1.22297
rtoes 2.11073
lfemur -5.05671 12.5737 -0.906632
ltibia 98.056
lfoot -2.24614 -35.8307
ltoes -36.755
